<svg xmlns="http://www.w3.org/2000/svg" viewBox="0 0 512 512"><title>Animals Outline Icon</title><g id="Layer_25" data-name="Layer 25"><path d="M205.565,246.841a27.851,27.851,0,0,0-28.15,28.15c0,16.232,12.365,28.946,28.15,28.946,15.523,0,28.151-12.985,28.151-28.946A28.528,28.528,0,0,0,205.565,246.841Zm0,42.1c-7.5,0-13.15-6-13.15-13.946a13.01,13.01,0,0,1,13.15-13.15,13.5,13.5,0,0,1,13.151,13.15C218.716,282.551,212.693,288.937,205.565,288.937Zm100.87-42.1a28.528,28.528,0,0,0-28.151,28.15c0,15.961,12.628,28.946,28.151,28.946s28.15-12.985,28.15-28.946A28.528,28.528,0,0,0,306.435,246.841Zm0,42.1c-7.128,0-13.151-6.386-13.151-13.946a13.151,13.151,0,0,1,26.3,0C319.585,282.551,313.563,288.937,306.435,288.937ZM474.558,109.251c-26.825-26.824-50.375-36.14-74.105-29.314-20.821,5.985-38.231,23.264-58.39,43.272-2.47,2.451-4.975,4.937-7.575,7.487a150.4,150.4,0,0,0-31.378,45.291,125.235,125.235,0,0,0-47.507-9.364,123.5,123.5,0,0,0-46.777,9.219,150.593,150.593,0,0,0-31.365-45.2q-3.824-3.75-7.523-7.437c-20.16-20.008-37.57-37.287-58.391-43.272-23.734-6.828-47.28,2.491-74.1,29.314S1.3,159.622,8.128,183.355c5.986,20.822,23.265,38.232,43.272,58.391,2.452,2.469,4.938,4.974,7.488,7.572,16.716,16.718,36.8,29.274,57.283,35.949a229.342,229.342,0,0,0-10.237,68.354c0,30.22,5.746,48.954,18.083,58.959,7.677,6.226,17.077,8.454,27.79,8.453,12.415,0,26.594-2.993,41.891-6.221,3.411-.721,6.933-1.458,10.5-2.183a40.648,40.648,0,0,0,14.077,2.5,49.27,49.27,0,0,0,8.491-.764c4.86,11.587,16.282,19.825,28.839,19.825a32.247,32.247,0,0,0,29.644-19.823,49.24,49.24,0,0,0,8.48.762,40.665,40.665,0,0,0,13.95-2.455c3.543.716,7.042,1.444,10.431,2.155,28.605,6,53.307,11.186,69.892-2.28,12.326-10.008,18.066-28.733,18.066-58.929a229.006,229.006,0,0,0-10.249-68.356c20.484-6.674,40.581-19.231,57.345-36q3.75-3.824,7.438-7.523c20.007-20.159,37.286-37.569,43.272-58.391C510.7,159.622,501.381,136.075,474.558,109.251ZM69.545,238.763q-3.782-3.855-7.5-7.584c-18.555-18.695-34.579-34.84-39.5-51.968-3.245-11.285-4.131-29.717,25.506-59.353S96.114,91.1,107.4,94.353c17.128,4.923,33.274,20.948,51.969,39.5,2.489,2.471,5.015,4.977,7.533,7.449A135.166,135.166,0,0,1,195.282,182.3a138.733,138.733,0,0,0-13.736,8.611,129.115,129.115,0,0,0-26.274-37.177q-2-2-3.964-3.977c-19.659-19.751-36.64-36.814-57.287-36.814H93.84C81.95,113,70.517,118.806,58.888,130.7,47,142.325,41.188,153.759,41.13,165.647c-.1,20.727,17,37.753,36.811,57.467q1.974,1.963,3.979,3.967c14.018,14.018,29.889,24.29,45.536,29.631q-3.411,7.034-6.305,14.4C102.788,265.2,84.664,253.883,69.545,238.763Zm65.083,4.5c-14.092-4.313-29.157-13.849-42.1-26.793q-2.016-2.016-4-3.992C71.1,195.145,56.06,180.171,56.13,165.721c.037-7.688,4.388-15.654,13.3-24.354.043-.042.086-.085.128-.128,8.7-8.913,16.666-13.263,24.353-13.3h.1c14.419,0,29.366,15.017,46.663,32.4q1.976,1.983,3.989,4c11.126,11.126,19.763,23.828,24.72,36.233a165.605,165.605,0,0,0-20.233,21.417A184.2,184.2,0,0,0,134.628,243.267ZM255.6,419.191c-6.13,0-11.743-3.89-14.51-9.49A51.018,51.018,0,0,0,256,398.8a50.991,50.991,0,0,0,14.892,10.894A17.17,17.17,0,0,1,255.6,419.191Zm11.108-30.9c-.079-.087-.16-.172-.244-.256a14.712,14.712,0,0,0-10.864-4.581c-2.5,0-6.286.795-10.07,4.581-.084.084-.165.169-.244.256a38.082,38.082,0,0,1-27.016,11.842,26.2,26.2,0,0,1-25.857-25.859c0-14.7,11.6-26.652,25.857-26.652a32.1,32.1,0,0,1,9.752,1.641c5.319,12.009,19.253,19.8,27.578,19.8,9.518,0,23.116-8.023,28.354-19.8a32.128,32.128,0,0,1,9.77-1.647c14.257,0,25.857,11.956,25.857,26.652a26.2,26.2,0,0,1-25.857,25.859A38.082,38.082,0,0,1,266.711,388.288Zm-25.847-48.963c0-2,.374-2.9.6-3.125,1.186-1.181,6.406-1.3,10.569-1.3.54,0,1.064,0,1.558,0l2.016,0,2.146,0c4.556-.014,11.428-.04,12.807,1.333.215.215.58,1.107.58,3.086,0,8.044-11.279,14.738-15.533,14.738C252.1,354.063,240.864,347.266,240.864,339.325Zm137.681,61.58c-10.536,8.553-29.639,5.037-53.854-.022a40.671,40.671,0,0,0,9.893-26.612c0-22.966-18.328-41.652-40.857-41.652a44.114,44.114,0,0,0-8.271.819,16.419,16.419,0,0,0-4.312-7.824c-5.793-5.771-14.381-5.75-23.448-5.708l-2.093,0-1.96,0c-8.368-.029-17.017-.063-22.77,5.667a16.486,16.486,0,0,0-4.329,7.856,44.326,44.326,0,0,0-8.271-.81c-22.529,0-40.857,18.686-40.857,41.652a40.67,40.67,0,0,0,9.853,26.565c-24.182,5.084-43.26,8.644-53.8.094-8.433-6.838-12.531-22.314-12.531-47.309,0-94.84,60.412-172,134.669-172,36.041,0,69.919,17.646,95.395,49.687,25.839,32.5,40.068,75.934,40.068,122.311C391.066,378.6,386.971,394.063,378.545,400.905Zm-15.806-178.93a165.28,165.28,0,0,0-20.173-21.286c4.948-12.443,13.6-25.187,24.769-36.353q2.447-2.448,4.828-4.852c16.793-16.914,31.3-31.521,45.431-31.546h.037c7.744,0,15.882,4.373,24.938,13.429,8.913,8.7,13.264,16.666,13.3,24.354.07,14.45-14.974,29.424-32.393,46.761q-1.986,1.977-4,3.992c-12.958,12.958-28.04,22.5-42.146,26.806A183.513,183.513,0,0,0,362.739,221.975Zm126.717-42.764c-4.924,17.128-20.948,33.273-39.5,51.968-2.471,2.49-4.977,5.014-7.448,7.534-15.17,15.17-33.305,26.5-51.675,32.4q-2.9-7.359-6.316-14.4c15.657-5.338,31.538-15.614,45.566-29.642q2-2,3.979-3.966c19.806-19.714,36.912-36.74,36.811-57.467-.057-11.91-5.888-23.364-17.758-34.95-11.95-11.95-23.554-17.759-35.479-17.759h-.066c-20.364.037-36.9,16.692-56.048,35.977q-2.365,2.382-4.791,4.814a128.992,128.992,0,0,0-26.338,37.312,139.554,139.554,0,0,0-13.736-8.6,134.942,134.942,0,0,1,28.391-41.089q3.853-3.783,7.584-7.5c18.695-18.554,34.841-34.579,51.969-39.5,11.288-3.248,29.716-4.132,59.352,25.505S492.7,167.926,489.456,179.211Z"/></g></svg>